<?xml version="1.0" standalone="no"?>
<svg xmlns="http://www.w3.org/2000/svg" xmlns:xlink="http://www.w3.org/1999/xlink" width="5041pt" height="3377pt" viewBox="0.00 0.00 5041.02 3376.63">
<g id="graph0" class="graph" transform="translate(-8434.366591566573,8590.268476972215) scale(2.852051434728293)" data-name="G">

<polygon fill="white" stroke="none" points="-4,4 -4,-3372.63 5037.02,-3372.63 5037.02,4 -4,4"/>
<!-- Lock -->
<g id="node1" class="node" pointer-events="visible" data-name="Lock">

<ellipse fill="none" stroke="black" cx="3166.87" cy="-1291.95" rx="30.76" ry="18"/>
<text text-anchor="middle" x="3166.87" y="-1287.75" font-family="Times,serif" font-size="14.00">Lock</text>
</g>
<!-- AKXStates -->
<g id="node2" class="node" pointer-events="visible" data-name="AKXStates">

<ellipse fill="none" stroke="black" cx="55.03" cy="-1411.95" rx="55.05" ry="18"/>
<text text-anchor="middle" x="55.03" y="-1407.75" font-family="Times,serif" font-size="14.00">AKXStates</text>
</g>
<!-- AKXEcosystem -->
<g id="node3" class="node" pointer-events="visible" data-name="AKXEcosystem">

<ellipse fill="none" stroke="black" cx="3697.04" cy="-2321.64" rx="73.59" ry="18"/>
<text text-anchor="middle" x="3697.04" y="-2317.44" font-family="Times,serif" font-size="14.00">AKXEcosystem</text>
</g>
<!-- AKXEcosystem&#45;&gt;AKXStates -->
<g id="edge4" class="edge" data-name="AKXEcosystem-&gt;AKXStates">

<path fill="none" stroke="black" d="M3645.21,-2308.69C3235.67,-2206.4 526.72,-1529.77 109.06,-1425.45"/>
<polygon fill="black" stroke="black" points="109.6,-1421.98 99.05,-1422.95 107.91,-1428.77 109.6,-1421.98"/>
</g>
<!-- InitModifiers -->
<g id="node4" class="node" pointer-events="visible" data-name="InitModifiers">

<ellipse fill="none" stroke="black" cx="3229.13" cy="-232.12" rx="62.56" ry="18"/>
<text text-anchor="middle" x="3229.13" y="-227.92" font-family="Times,serif" font-size="14.00">InitModifiers</text>
</g>
<!-- AKXEcosystem&#45;&gt;InitModifiers -->
<g id="edge1" class="edge" data-name="AKXEcosystem-&gt;InitModifiers">

<path fill="none" stroke="black" d="M3693,-2303.57C3650.58,-2114.12 3287.7,-493.65 3235.4,-260.12"/>
<polygon fill="black" stroke="black" points="3238.81,-259.34 3233.21,-250.34 3231.98,-260.87 3238.81,-259.34"/>
</g>
<!-- AKXSetup -->
<g id="node5" class="node" pointer-events="visible" data-name="AKXSetup">

<ellipse fill="none" stroke="black" cx="4142.11" cy="-2366.8" rx="53.91" ry="18"/>
<text text-anchor="middle" x="4142.11" y="-2362.6" font-family="Times,serif" font-size="14.00">AKXSetup</text>
</g>
<!-- AKXEcosystem&#45;&gt;AKXSetup -->
<g id="edge2" class="edge" data-name="AKXEcosystem-&gt;AKXSetup">

<path fill="none" stroke="black" d="M3765.61,-2328.59C3851.63,-2337.32 3997.86,-2352.16 4080.49,-2360.54"/>
<polygon fill="black" stroke="black" points="4080.18,-2364.03 4090.48,-2361.56 4080.89,-2357.07 4080.18,-2364.03"/>
</g>
<!-- IAKX -->
<g id="node6" class="node" pointer-events="visible" data-name="IAKX">

<ellipse fill="none" stroke="black" cx="4039.53" cy="-2490.96" rx="35.35" ry="18"/>
<text text-anchor="middle" x="4039.53" y="-2486.76" font-family="Times,serif" font-size="14.00">IAKX</text>
</g>
<!-- AKXEcosystem&#45;&gt;IAKX -->
<g id="edge3" class="edge" data-name="AKXEcosystem-&gt;IAKX">

<path fill="none" stroke="black" d="M3729.88,-2337.87C3794.67,-2369.9 3938.41,-2440.97 4004.74,-2473.77"/>
<polygon fill="black" stroke="black" points="4003.43,-2477.02 4013.95,-2478.32 4006.54,-2470.75 4003.43,-2477.02"/>
</g>
<!-- AKXRoles -->
<g id="node7" class="node" pointer-events="visible" data-name="AKXRoles">

<ellipse fill="none" stroke="black" cx="3433.08" cy="-2507.31" rx="53.91" ry="18"/>
<text text-anchor="middle" x="3433.08" y="-2503.11" font-family="Times,serif" font-size="14.00">AKXRoles</text>
</g>
<!-- AKXEcosystem&#45;&gt;AKXRoles -->
<g id="edge5" class="edge" data-name="AKXEcosystem-&gt;AKXRoles">

<path fill="none" stroke="black" d="M3672.68,-2338.77C3624.69,-2372.53 3517.93,-2447.62 3464.63,-2485.12"/>
<polygon fill="black" stroke="black" points="3462.41,-2482.4 3456.24,-2491.01 3466.43,-2488.12 3462.41,-2482.4"/>
</g>
<!-- AKXMetas -->
<g id="node8" class="node" pointer-events="visible" data-name="AKXMetas">

<ellipse fill="none" stroke="black" cx="3923.78" cy="-2605.25" rx="55.62" ry="18"/>
<text text-anchor="middle" x="3923.78" y="-2601.05" font-family="Times,serif" font-size="14.00">AKXMetas</text>
</g>
<!-- AKXEcosystem&#45;&gt;AKXMetas -->
<g id="edge6" class="edge" data-name="AKXEcosystem-&gt;AKXMetas">

<path fill="none" stroke="black" d="M3711.23,-2339.38C3749.96,-2387.82 3857.65,-2522.53 3903.11,-2579.39"/>
<polygon fill="black" stroke="black" points="3900.62,-2581.89 3909.6,-2587.51 3906.09,-2577.52 3900.62,-2581.89"/>
</g>
<!-- AccessControlEnumerable -->
<g id="node9" class="node" pointer-events="visible" data-name="AccessControlEnumerable">

<ellipse fill="none" stroke="black" cx="3903.96" cy="-2073.97" rx="114.59" ry="18"/>
<text text-anchor="middle" x="3903.96" y="-2069.77" font-family="Times,serif" font-size="14.00">AccessControlEnumerable</text>
</g>
<!-- AKXEcosystem&#45;&gt;AccessControlEnumerable -->
<g id="edge7" class="edge" data-name="AKXEcosystem-&gt;AccessControlEnumerable">

<path fill="none" stroke="black" d="M3711.93,-2303.82C3748,-2260.64 3840.25,-2150.23 3882.39,-2099.8"/>
<polygon fill="black" stroke="black" points="3885.21,-2101.87 3888.94,-2091.95 3879.84,-2097.38 3885.21,-2101.87"/>
</g>
<!-- Auth -->
<g id="node10" class="node" pointer-events="visible" data-name="Auth">

<ellipse fill="none" stroke="black" cx="3705.34" cy="-2686.09" rx="30.2" ry="18"/>
<text text-anchor="middle" x="3705.34" y="-2681.89" font-family="Times,serif" font-size="14.00">Auth</text>
</g>
<!-- AKXEcosystem&#45;&gt;Auth -->
<g id="edge8" class="edge" data-name="AKXEcosystem-&gt;Auth">

<path fill="none" stroke="black" d="M3697.46,-2339.71C3698.8,-2398.73 3703.07,-2586.12 3704.7,-2657.81"/>
<polygon fill="black" stroke="black" points="3701.2,-2657.99 3704.93,-2667.91 3708.2,-2657.83 3701.2,-2657.99"/>
</g>
<!-- IAuth -->
<g id="node11" class="node" pointer-events="visible" data-name="IAuth">

<ellipse fill="none" stroke="black" cx="3780.49" cy="-2799.34" rx="33.63" ry="18"/>
<text text-anchor="middle" x="3780.49" y="-2795.14" font-family="Times,serif" font-size="14.00">IAuth</text>
</g>
<!-- Auth&#45;&gt;IAuth -->
<g id="edge9" class="edge" data-name="Auth-&gt;IAuth">

<path fill="none" stroke="black" d="M3716.76,-2703.29C3729.24,-2722.11 3749.38,-2752.46 3763.68,-2774"/>
<polygon fill="black" stroke="black" points="3760.77,-2775.95 3769.22,-2782.35 3766.61,-2772.08 3760.77,-2775.95"/>
</g>
<!-- BaseUserRegistry -->
<g id="node12" class="node" pointer-events="visible" data-name="BaseUserRegistry">

<ellipse fill="none" stroke="black" cx="4882.49" cy="-2044.94" rx="80.53" ry="18"/>
<text text-anchor="middle" x="4882.49" y="-2040.74" font-family="Times,serif" font-size="14.00">BaseUserRegistry</text>
</g>
<!-- ERC721 -->
<g id="node13" class="node" pointer-events="visible" data-name="ERC721">

<ellipse fill="none" stroke="black" cx="4988.71" cy="-1705.53" rx="44.11" ry="18"/>
<text text-anchor="middle" x="4988.71" y="-1701.33" font-family="Times,serif" font-size="14.00">ERC721</text>
</g>
<!-- BaseUserRegistry&#45;&gt;ERC721 -->
<g id="edge10" class="edge" data-name="BaseUserRegistry-&gt;ERC721">

<path fill="none" stroke="black" d="M4888.2,-2026.69C4905.75,-1970.62 4958.96,-1800.58 4980.01,-1733.33"/>
<polygon fill="black" stroke="black" points="4983.46,-1734.04 4983.1,-1723.45 4976.78,-1731.95 4983.46,-1734.04"/>
</g>
<!-- Ownable -->
<g id="node14" class="node" pointer-events="visible" data-name="Ownable">

<ellipse fill="none" stroke="black" cx="4823.16" cy="-2234.53" rx="45.79" ry="18"/>
<text text-anchor="middle" x="4823.16" y="-2230.33" font-family="Times,serif" font-size="14.00">Ownable</text>
</g>
<!-- BaseUserRegistry&#45;&gt;Ownable -->
<g id="edge11" class="edge" data-name="BaseUserRegistry-&gt;Ownable">

<path fill="none" stroke="black" d="M4876.8,-2063.12C4866.39,-2096.38 4844.21,-2167.25 4831.88,-2206.65"/>
<polygon fill="black" stroke="black" points="4828.48,-2205.82 4828.83,-2216.41 4835.16,-2207.91 4828.48,-2205.82"/>
</g>
<!-- DidRegistry -->
<g id="node15" class="node" pointer-events="visible" data-name="DidRegistry">

<ellipse fill="none" stroke="black" cx="2311.87" cy="-1683.95" rx="58.49" ry="18"/>
<text text-anchor="middle" x="2311.87" y="-1679.75" font-family="Times,serif" font-size="14.00">DidRegistry</text>
</g>
<!-- BytesUtils -->
<g id="node16" class="node" pointer-events="visible" data-name="BytesUtils">

<ellipse fill="none" stroke="black" cx="2490.66" cy="-2591.79" rx="51.63" ry="18"/>
<text text-anchor="middle" x="2490.66" y="-2587.59" font-family="Times,serif" font-size="14.00">BytesUtils</text>
</g>
<!-- ERC2055 -->
<g id="node17" class="node" pointer-events="visible" data-name="ERC2055">

<ellipse fill="none" stroke="black" cx="4356.91" cy="-1076.72" rx="49.26" ry="18"/>
<text text-anchor="middle" x="4356.91" y="-1072.52" font-family="Times,serif" font-size="14.00">ERC2055</text>
</g>
<!-- IERC2055 -->
<g id="node18" class="node" pointer-events="visible" data-name="IERC2055">

<ellipse fill="none" stroke="black" cx="4319" cy="-907.44" rx="52.2" ry="18"/>
<text text-anchor="middle" x="4319" y="-903.24" font-family="Times,serif" font-size="14.00">IERC2055</text>
</g>
<!-- ERC2055&#45;&gt;IERC2055 -->
<g id="edge12" class="edge" data-name="ERC2055-&gt;IERC2055">

<path fill="none" stroke="black" d="M4352.85,-1058.61C4346.24,-1029.08 4333.09,-970.37 4325.27,-935.44"/>
<polygon fill="black" stroke="black" points="4328.63,-934.42 4323.03,-925.42 4321.8,-935.95 4328.63,-934.42"/>
</g>
<!-- EIP712 -->
<g id="node19" class="node" pointer-events="visible" data-name="EIP712">

<ellipse fill="none" stroke="black" cx="4394.82" cy="-1246.01" rx="40.01" ry="18"/>
<text text-anchor="middle" x="4394.82" y="-1241.81" font-family="Times,serif" font-size="14.00">EIP712</text>
</g>
<!-- ERC2055&#45;&gt;EIP712 -->
<g id="edge13" class="edge" data-name="ERC2055-&gt;EIP712">

<path fill="none" stroke="black" d="M4360.96,-1094.84C4367.58,-1124.37 4380.72,-1183.08 4388.54,-1218.01"/>
<polygon fill="black" stroke="black" points="4385.19,-1219.03 4390.79,-1228.02 4392.02,-1217.5 4385.19,-1219.03"/>
</g>
<!-- IsSelf -->
<g id="node20" class="node" pointer-events="visible" data-name="IsSelf">

<ellipse fill="none" stroke="black" cx="3169.87" cy="-1095.95" rx="33.63" ry="18"/>
<text text-anchor="middle" x="3169.87" y="-1091.75" font-family="Times,serif" font-size="14.00">IsSelf</text>
</g>
<!-- IERC2055Storage -->
<g id="node21" class="node" pointer-events="visible" data-name="IERC2055Storage">

<ellipse fill="none" stroke="black" cx="2923.87" cy="-1291.95" rx="81.69" ry="18"/>
<text text-anchor="middle" x="2923.87" y="-1287.75" font-family="Times,serif" font-size="14.00">IERC2055Storage</text>
</g>
<!-- Hashing -->
<g id="node22" class="node" pointer-events="visible" data-name="Hashing">

<ellipse fill="none" stroke="black" cx="2394.87" cy="-1487.95" rx="43.45" ry="18"/>
<text text-anchor="middle" x="2394.87" y="-1483.75" font-family="Times,serif" font-size="14.00">Hashing</text>
</g>
<!-- LibMath -->
<g id="node23" class="node" pointer-events="visible" data-name="LibMath">

<ellipse fill="none" stroke="black" cx="3769.58" cy="-574.81" rx="44.66" ry="18"/>
<text text-anchor="middle" x="3769.58" y="-570.61" font-family="Times,serif" font-size="14.00">LibMath</text>
</g>
<!-- Pricing -->
<g id="node24" class="node" pointer-events="visible" data-name="Pricing">

<ellipse fill="none" stroke="black" cx="4053.54" cy="-787.34" rx="38.86" ry="18"/>
<text text-anchor="middle" x="4053.54" y="-783.14" font-family="Times,serif" font-size="14.00">Pricing</text>
</g>
<!-- IERC2055Decentralized -->
<g id="node25" class="node" pointer-events="visible" data-name="IERC2055Decentralized">

<ellipse fill="none" stroke="black" cx="2849.87" cy="-1879.95" rx="105.92" ry="18"/>
<text text-anchor="middle" x="2849.87" y="-1875.75" font-family="Times,serif" font-size="14.00">IERC2055Decentralized</text>
</g>
<!-- ModulesManager -->
<g id="node26" class="node" pointer-events="visible" data-name="ModulesManager">

<ellipse fill="none" stroke="black" cx="3130.05" cy="-2618.34" rx="79.31" ry="18"/>
<text text-anchor="middle" x="3130.05" y="-2614.14" font-family="Times,serif" font-size="14.00">ModulesManager</text>
</g>
<!-- ModulesManager&#45;&gt;AKXRoles -->
<g id="edge15" class="edge" data-name="ModulesManager-&gt;AKXRoles">

<path fill="none" stroke="black" d="M3171.86,-2603.01C3228.19,-2582.38 3328.12,-2545.76 3386.69,-2524.3"/>
<polygon fill="black" stroke="black" points="3388.24,-2527.46 3396.43,-2520.74 3385.84,-2520.89 3388.24,-2527.46"/>
</g>
<!-- ModulesManager&#45;&gt;AccessControlEnumerable -->
<g id="edge16" class="edge" data-name="ModulesManager-&gt;AccessControlEnumerable">

<path fill="none" stroke="black" d="M3154.49,-2601.14C3267.51,-2521.64 3739.56,-2189.61 3870.28,-2097.66"/>
<polygon fill="black" stroke="black" points="3872.57,-2100.33 3878.74,-2091.71 3868.55,-2094.6 3872.57,-2100.33"/>
</g>
<!-- ModuleRegistry -->
<g id="node27" class="node" pointer-events="visible" data-name="ModuleRegistry">

<ellipse fill="none" stroke="black" cx="2808.61" cy="-2647.15" rx="73.6" ry="18"/>
<text text-anchor="middle" x="2808.61" y="-2642.95" font-family="Times,serif" font-size="14.00">ModuleRegistry</text>
</g>
<!-- ModulesManager&#45;&gt;ModuleRegistry -->
<g id="edge14" class="edge" data-name="ModulesManager-&gt;ModuleRegistry">

<path fill="none" stroke="black" d="M3056.3,-2624.95C3006,-2629.45 2939.42,-2635.42 2887.96,-2640.04"/>
<polygon fill="black" stroke="black" points="2887.53,-2636.56 2877.88,-2640.94 2888.16,-2643.53 2887.53,-2636.56"/>
</g>
<!-- ModuleRegistry&#45;&gt;BytesUtils -->
<g id="edge18" class="edge" data-name="ModuleRegistry-&gt;BytesUtils">

<path fill="none" stroke="black" d="M2748.43,-2636.67C2690.52,-2626.59 2603.62,-2611.46 2547.03,-2601.6"/>
<polygon fill="black" stroke="black" points="2547.62,-2598.15 2537.17,-2599.88 2546.42,-2605.05 2547.62,-2598.15"/>
</g>
<!-- ModuleStorage -->
<g id="node28" class="node" pointer-events="visible" data-name="ModuleStorage">

<ellipse fill="none" stroke="black" cx="2780.35" cy="-3327.73" rx="70.65" ry="18"/>
<text text-anchor="middle" x="2780.35" y="-3323.53" font-family="Times,serif" font-size="14.00">ModuleStorage</text>
</g>
<!-- ModuleRegistry&#45;&gt;ModuleStorage -->
<g id="edge17" class="edge" data-name="ModuleRegistry-&gt;ModuleStorage">

<path fill="none" stroke="black" d="M2807.85,-2665.35C2803.97,-2758.84 2786.27,-3184.99 2781.52,-3299.39"/>
<polygon fill="black" stroke="black" points="2778.02,-3299.33 2781.11,-3309.47 2785.02,-3299.62 2778.02,-3299.33"/>
</g>
<!-- IModule -->
<g id="node29" class="node" pointer-events="visible" data-name="IModule">

<ellipse fill="none" stroke="black" cx="2967.06" cy="-3335.48" rx="44.09" ry="18"/>
<text text-anchor="middle" x="2967.06" y="-3331.28" font-family="Times,serif" font-size="14.00">IModule</text>
</g>
<!-- ModuleStorage&#45;&gt;IModule -->
<g id="edge19" class="edge" data-name="ModuleStorage-&gt;IModule">

<path fill="none" stroke="black" d="M2850.14,-3330.63C2870.77,-3331.48 2893.04,-3332.41 2912.56,-3333.22"/>
<polygon fill="black" stroke="black" points="2912.66,-3336.73 2922.79,-3333.64 2912.95,-3329.73 2912.66,-3336.73"/>
</g>
<!-- IModuleRegistry -->
<g id="node30" class="node" pointer-events="visible" data-name="IModuleRegistry">

<ellipse fill="none" stroke="black" cx="2404.8" cy="-3312.13" rx="77.04" ry="18"/>
<text text-anchor="middle" x="2404.8" y="-3307.93" font-family="Times,serif" font-size="14.00">IModuleRegistry</text>
</g>
<!-- ModuleStorage&#45;&gt;IModuleRegistry -->
<g id="edge20" class="edge" data-name="ModuleStorage-&gt;IModuleRegistry">

<path fill="none" stroke="black" d="M2710.59,-3324.83C2648.45,-3322.25 2557.3,-3318.47 2490.69,-3315.7"/>
<polygon fill="black" stroke="black" points="2490.77,-3312.2 2480.63,-3315.28 2490.48,-3319.2 2490.77,-3312.2"/>
</g>
<!-- BaseModule -->
<g id="node31" class="node" pointer-events="visible" data-name="BaseModule">

<ellipse fill="none" stroke="black" cx="3143.05" cy="-3342.79" rx="59.7" ry="18"/>
<text text-anchor="middle" x="3143.05" y="-3338.59" font-family="Times,serif" font-size="14.00">BaseModule</text>
</g>
<!-- BaseModule&#45;&gt;IModule -->
<g id="edge21" class="edge" data-name="BaseModule-&gt;IModule">

<path fill="none" stroke="black" d="M3083.47,-3340.32C3063.34,-3339.48 3040.99,-3338.55 3021.3,-3337.73"/>
<polygon fill="black" stroke="black" points="3021.41,-3334.24 3011.27,-3337.32 3021.12,-3341.23 3021.41,-3334.24"/>
</g>
<!-- Initializable -->
<g id="node32" class="node" pointer-events="visible" data-name="Initializable">

<ellipse fill="none" stroke="black" cx="3331.89" cy="-3350.63" rx="57.3" ry="18"/>
<text text-anchor="middle" x="3331.89" y="-3346.43" font-family="Times,serif" font-size="14.00">Initializable</text>
</g>
<!-- BaseModule&#45;&gt;Initializable -->
<g id="edge22" class="edge" data-name="BaseModule-&gt;Initializable">

<path fill="none" stroke="black" d="M3202.54,-3345.26C3222.33,-3346.08 3244.51,-3347 3264.83,-3347.85"/>
<polygon fill="black" stroke="black" points="3264.81,-3351.35 3274.95,-3348.27 3265.11,-3344.36 3264.81,-3351.35"/>
</g>
<!-- AkxWallet -->
<g id="node33" class="node" pointer-events="visible" data-name="AkxWallet">

<ellipse fill="none" stroke="black" cx="2911.19" cy="-176.76" rx="53.31" ry="18"/>
<text text-anchor="middle" x="2911.19" y="-172.56" font-family="Times,serif" font-size="14.00">AkxWallet</text>
</g>
<!-- AkxWallet&#45;&gt;InitModifiers -->
<g id="edge28" class="edge" data-name="AkxWallet-&gt;InitModifiers">

<path fill="none" stroke="black" d="M2958.79,-185.05C3013.84,-194.64 3104.71,-210.46 3165.72,-221.08"/>
<polygon fill="black" stroke="black" points="3165.17,-224.54 3175.62,-222.81 3166.37,-217.64 3165.17,-224.54"/>
</g>
<!-- ERC165 -->
<g id="node34" class="node" pointer-events="visible" data-name="ERC165">

<ellipse fill="none" stroke="black" cx="3521.91" cy="-367.89" rx="44.11" ry="18"/>
<text text-anchor="middle" x="3521.91" y="-363.69" font-family="Times,serif" font-size="14.00">ERC165</text>
</g>
<!-- AkxWallet&#45;&gt;ERC165 -->
<g id="edge23" class="edge" data-name="AkxWallet-&gt;ERC165">

<path fill="none" stroke="black" d="M2950.79,-189.15C3059.45,-223.16 3361.81,-317.78 3476.77,-353.76"/>
<polygon fill="black" stroke="black" points="3476.07,-357.21 3486.65,-356.86 3478.16,-350.53 3476.07,-357.21"/>
</g>
<!-- NonCustodialWallet -->
<g id="node35" class="node" pointer-events="visible" data-name="NonCustodialWallet">

<ellipse fill="none" stroke="black" cx="1815.83" cy="-749.94" rx="90.35" ry="18"/>
<text text-anchor="middle" x="1815.83" y="-745.74" font-family="Times,serif" font-size="14.00">NonCustodialWallet</text>
</g>
<!-- AkxWallet&#45;&gt;NonCustodialWallet -->
<g id="edge24" class="edge" data-name="AkxWallet-&gt;NonCustodialWallet">

<path fill="none" stroke="black" d="M2882.17,-191.94C2731.11,-270.99 2034.77,-635.37 1857.16,-728.31"/>
<polygon fill="black" stroke="black" points="1855.37,-725.3 1848.13,-733.04 1858.61,-731.5 1855.37,-725.3"/>
</g>
<!-- IERC1155Receiver -->
<g id="node36" class="node" pointer-events="visible" data-name="IERC1155Receiver">

<ellipse fill="none" stroke="black" cx="2567.02" cy="-48.13" rx="86.82" ry="18"/>
<text text-anchor="middle" x="2567.02" y="-43.93" font-family="Times,serif" font-size="14.00">IERC1155Receiver</text>
</g>
<!-- AkxWallet&#45;&gt;IERC1155Receiver -->
<g id="edge25" class="edge" data-name="AkxWallet-&gt;IERC1155Receiver">

<path fill="none" stroke="black" d="M2875.33,-163.36C2814.16,-140.5 2689.42,-93.88 2618.8,-67.48"/>
<polygon fill="black" stroke="black" points="2619.79,-64.12 2609.2,-63.89 2617.34,-70.67 2619.79,-64.12"/>
</g>
<!-- IERC777Recipient -->
<g id="node37" class="node" pointer-events="visible" data-name="IERC777Recipient">

<ellipse fill="none" stroke="black" cx="2808.02" cy="-18" rx="84.55" ry="18"/>
<text text-anchor="middle" x="2808.02" y="-13.8" font-family="Times,serif" font-size="14.00">IERC777Recipient</text>
</g>
<!-- AkxWallet&#45;&gt;IERC777Recipient -->
<g id="edge26" class="edge" data-name="AkxWallet-&gt;IERC777Recipient">

<path fill="none" stroke="black" d="M2899.75,-159.16C2881.72,-131.42 2846.56,-77.31 2825.4,-44.74"/>
<polygon fill="black" stroke="black" points="2828.21,-42.64 2819.82,-36.16 2822.34,-46.46 2828.21,-42.64"/>
</g>
<!-- IERC721Receiver -->
<g id="node38" class="node" pointer-events="visible" data-name="IERC721Receiver">

<ellipse fill="none" stroke="black" cx="3045.81" cy="-29.48" rx="81.66" ry="18"/>
<text text-anchor="middle" x="3045.81" y="-25.28" font-family="Times,serif" font-size="14.00">IERC721Receiver</text>
</g>
<!-- AkxWallet&#45;&gt;IERC721Receiver -->
<g id="edge27" class="edge" data-name="AkxWallet-&gt;IERC721Receiver">

<path fill="none" stroke="black" d="M2927.16,-159.29C2950.82,-133.41 2995.3,-84.74 3022.57,-54.91"/>
<polygon fill="black" stroke="black" points="3025.28,-57.13 3029.44,-47.39 3020.11,-52.41 3025.28,-57.13"/>
</g>
<!-- ERC2055Transaction -->
<g id="node39" class="node" pointer-events="visible" data-name="ERC2055Transaction">

<ellipse fill="none" stroke="black" cx="2589.75" cy="-205.57" rx="94.93" ry="18"/>
<text text-anchor="middle" x="2589.75" y="-201.37" font-family="Times,serif" font-size="14.00">ERC2055Transaction</text>
</g>
<!-- AkxWallet&#45;&gt;ERC2055Transaction -->
<g id="edge29" class="edge" data-name="AkxWallet-&gt;ERC2055Transaction">

<path fill="none" stroke="black" d="M2859.54,-181.39C2812.75,-185.58 2742.6,-191.87 2685.56,-196.98"/>
<polygon fill="black" stroke="black" points="2685.09,-193.51 2675.44,-197.89 2685.71,-200.49 2685.09,-193.51"/>
</g>
<!-- FallbackManager -->
<g id="node40" class="node" pointer-events="visible" data-name="FallbackManager">

<ellipse fill="none" stroke="black" cx="3272.54" cy="-79.46" rx="78.71" ry="18"/>
<text text-anchor="middle" x="3272.54" y="-75.26" font-family="Times,serif" font-size="14.00">FallbackManager</text>
</g>
<!-- AkxWallet&#45;&gt;FallbackManager -->
<g id="edge30" class="edge" data-name="AkxWallet-&gt;FallbackManager">

<path fill="none" stroke="black" d="M2952.99,-165.5C3016.6,-148.38 3138.04,-115.68 3211.51,-95.9"/>
<polygon fill="black" stroke="black" points="3212.81,-99.17 3221.55,-93.19 3210.99,-92.41 3212.81,-99.17"/>
</g>
<!-- ISignatureValidator -->
<g id="node42" class="node" pointer-events="visible" data-name="ISignatureValidator">

<ellipse fill="none" stroke="black" cx="2022.75" cy="-502.27" rx="87.96" ry="18"/>
<text text-anchor="middle" x="2022.75" y="-498.07" font-family="Times,serif" font-size="14.00">ISignatureValidator</text>
</g>
<!-- NonCustodialWallet&#45;&gt;ISignatureValidator -->
<g id="edge31" class="edge" data-name="NonCustodialWallet-&gt;ISignatureValidator">

<path fill="none" stroke="black" d="M1830.71,-732.13C1866.79,-688.95 1959.04,-578.53 2001.17,-528.1"/>
<polygon fill="black" stroke="black" points="2004,-530.17 2007.73,-520.26 1998.63,-525.69 2004,-530.17"/>
</g>
<!-- ERC2055Transaction&#45;&gt;LibMath -->
<g id="edge38" class="edge" data-name="ERC2055Transaction-&gt;LibMath">

<path fill="none" stroke="black" d="M2638.94,-220.97C2832.29,-281.48 3538.54,-502.5 3724.47,-560.69"/>
<polygon fill="black" stroke="black" points="3723.61,-564.09 3734.2,-563.73 3725.7,-557.41 3723.61,-564.09"/>
</g>
<!-- ISignatureValidatorConstants -->
<g id="node47" class="node" pointer-events="visible" data-name="ISignatureValidatorConstants">

<ellipse fill="none" stroke="black" cx="2286.72" cy="-316.6" rx="125.65" ry="18"/>
<text text-anchor="middle" x="2286.72" y="-312.4" font-family="Times,serif" font-size="14.00">ISignatureValidatorConstants</text>
</g>
<!-- ERC2055Transaction&#45;&gt;ISignatureValidatorConstants -->
<g id="edge37" class="edge" data-name="ERC2055Transaction-&gt;ISignatureValidatorConstants">

<path fill="none" stroke="black" d="M2546.01,-221.6C2492.21,-241.31 2400.83,-274.79 2342.16,-296.29"/>
<polygon fill="black" stroke="black" points="2340.86,-293.03 2332.68,-299.76 2343.27,-299.61 2340.86,-293.03"/>
</g>
<!-- AkxWalletManager -->
<g id="node41" class="node" pointer-events="visible" data-name="AkxWalletManager">

<ellipse fill="none" stroke="black" cx="2635.87" cy="-1291.95" rx="87.94" ry="18"/>
<text text-anchor="middle" x="2635.87" y="-1287.75" font-family="Times,serif" font-size="14.00">AkxWalletManager</text>
</g>
<!-- ISignatureValidator&#45;&gt;ISignatureValidatorConstants -->
<g id="edge39" class="edge" data-name="ISignatureValidator-&gt;ISignatureValidatorConstants">

<path fill="none" stroke="black" d="M2047.58,-484.8C2095.12,-451.37 2199.02,-378.28 2252.86,-340.41"/>
<polygon fill="black" stroke="black" points="2255.21,-343.04 2261.37,-334.43 2251.18,-337.32 2255.21,-343.04"/>
</g>
<!-- AKXWalletFactory -->
<g id="node43" class="node" pointer-events="visible" data-name="AKXWalletFactory">

<ellipse fill="none" stroke="black" cx="2536.87" cy="-1879.95" rx="87.39" ry="18"/>
<text text-anchor="middle" x="2536.87" y="-1875.75" font-family="Times,serif" font-size="14.00">AKXWalletFactory</text>
</g>
<!-- BuyingLogic -->
<g id="node44" class="node" pointer-events="visible" data-name="BuyingLogic">

<ellipse fill="none" stroke="black" cx="3955.25" cy="-838.78" rx="62" ry="18"/>
<text text-anchor="middle" x="3955.25" y="-834.58" font-family="Times,serif" font-size="14.00">BuyingLogic</text>
</g>
<!-- BuyingLogic&#45;&gt;LibMath -->
<g id="edge33" class="edge" data-name="BuyingLogic-&gt;LibMath">

<path fill="none" stroke="black" d="M3942.78,-821.05C3910.74,-775.49 3825.42,-654.2 3787.82,-600.73"/>
<polygon fill="black" stroke="black" points="3790.61,-598.63 3782,-592.46 3784.89,-602.65 3790.61,-598.63"/>
</g>
<!-- BuyingLogic&#45;&gt;Pricing -->
<g id="edge32" class="edge" data-name="BuyingLogic-&gt;Pricing">

<path fill="none" stroke="black" d="M3985.54,-822.92C3995.93,-817.49 4007.63,-811.37 4018.37,-805.75"/>
<polygon fill="black" stroke="black" points="4020.26,-808.71 4027.5,-800.97 4017.01,-802.51 4020.26,-808.71"/>
</g>
<!-- LabzERC2055 -->
<g id="node45" class="node" pointer-events="visible" data-name="LabzERC2055">

<ellipse fill="none" stroke="black" cx="4066.28" cy="-1141.81" rx="68.36" ry="18"/>
<text text-anchor="middle" x="4066.28" y="-1137.61" font-family="Times,serif" font-size="14.00">LabzERC2055</text>
</g>
<!-- LabzERC2055&#45;&gt;ERC2055 -->
<g id="edge34" class="edge" data-name="LabzERC2055-&gt;ERC2055">

<path fill="none" stroke="black" d="M4118.57,-1130.09C4171.39,-1118.27 4252.48,-1100.11 4305.12,-1088.32"/>
<polygon fill="black" stroke="black" points="4305.93,-1091.73 4314.92,-1086.13 4304.4,-1084.89 4305.93,-1091.73"/>
</g>
<!-- LabzERC2055&#45;&gt;BuyingLogic -->
<g id="edge36" class="edge" data-name="LabzERC2055-&gt;BuyingLogic">

<path fill="none" stroke="black" d="M4059.67,-1123.76C4041,-1072.81 3987.8,-927.62 3965.4,-866.46"/>
<polygon fill="black" stroke="black" points="3968.56,-864.92 3961.83,-856.73 3961.98,-867.32 3968.56,-864.92"/>
</g>
<!-- ReentrancyGuard -->
<g id="node46" class="node" pointer-events="visible" data-name="ReentrancyGuard">

<ellipse fill="none" stroke="black" cx="4095.09" cy="-1463.24" rx="79.28" ry="18"/>
<text text-anchor="middle" x="4095.09" y="-1459.04" font-family="Times,serif" font-size="14.00">ReentrancyGuard</text>
</g>
<!-- LabzERC2055&#45;&gt;ReentrancyGuard -->
<g id="edge35" class="edge" data-name="LabzERC2055-&gt;ReentrancyGuard">

<path fill="none" stroke="black" d="M4067.91,-1160.01C4072.7,-1213.49 4086.77,-1370.43 4092.56,-1435"/>
<polygon fill="black" stroke="black" points="4089.1,-1435.59 4093.48,-1445.24 4096.07,-1434.97 4089.1,-1435.59"/>
</g>
<!-- OrderLogic -->
<g id="node48" class="node" pointer-events="visible" data-name="OrderLogic">

<ellipse fill="none" stroke="black" cx="2211.87" cy="-1291.95" rx="56.16" ry="18"/>
<text text-anchor="middle" x="2211.87" y="-1287.75" font-family="Times,serif" font-size="14.00">OrderLogic</text>
</g>
<!-- TransactionArchivesStorage -->
<g id="node49" class="node" pointer-events="visible" data-name="TransactionArchivesStorage">

<ellipse fill="none" stroke="black" cx="4751.81" cy="-2462.5" rx="120.96" ry="18"/>
<text text-anchor="middle" x="4751.81" y="-2458.3" font-family="Times,serif" font-size="14.00">TransactionArchivesStorage</text>
</g>
<!-- TransactionArchivesStorage&#45;&gt;Ownable -->
<g id="edge40" class="edge" data-name="TransactionArchivesStorage-&gt;Ownable">

<path fill="none" stroke="black" d="M4757.53,-2444.23C4770.01,-2404.37 4799.74,-2309.37 4814.51,-2262.15"/>
<polygon fill="black" stroke="black" points="4817.87,-2263.16 4817.51,-2252.57 4811.18,-2261.07 4817.87,-2263.16"/>
</g>
<!-- AKXProxyFactory -->
<g id="node50" class="node" pointer-events="visible" data-name="AKXProxyFactory">

<ellipse fill="none" stroke="black" cx="3024.87" cy="-1683.95" rx="84.56" ry="18"/>
<text text-anchor="middle" x="3024.87" y="-1679.75" font-family="Times,serif" font-size="14.00">AKXProxyFactory</text>
</g>
<!-- UserDataServiceResolver -->
<g id="node51" class="node" pointer-events="visible" data-name="UserDataServiceResolver">

<ellipse fill="none" stroke="black" cx="4039.73" cy="-1781.19" rx="110.57" ry="18"/>
<text text-anchor="middle" x="4039.73" y="-1776.99" font-family="Times,serif" font-size="14.00">UserDataServiceResolver</text>
</g>
<!-- UserDataServiceResolver&#45;&gt;AKXRoles -->
<g id="edge45" class="edge" data-name="UserDataServiceResolver-&gt;AKXRoles">

<path fill="none" stroke="black" d="M4024.73,-1799.14C3942.94,-1897.04 3550.82,-2366.38 3454.49,-2481.68"/>
<polygon fill="black" stroke="black" points="3451.54,-2479.75 3447.82,-2489.66 3456.92,-2484.23 3451.54,-2479.75"/>
</g>
<!-- UserDataServiceResolver&#45;&gt;AccessControlEnumerable -->
<g id="edge42" class="edge" data-name="UserDataServiceResolver-&gt;AccessControlEnumerable">

<path fill="none" stroke="black" d="M4031.24,-1799.5C4008.14,-1849.31 3944.09,-1987.44 3916.68,-2046.55"/>
<polygon fill="black" stroke="black" points="3913.48,-2045.12 3912.45,-2055.66 3919.83,-2048.06 3913.48,-2045.12"/>
</g>
<!-- UserDataServiceResolver&#45;&gt;BaseUserRegistry -->
<g id="edge43" class="edge" data-name="UserDataServiceResolver-&gt;BaseUserRegistry">

<path fill="none" stroke="black" d="M4090.86,-1797.19C4239.43,-1843.69 4670.34,-1978.54 4825.76,-2027.18"/>
<polygon fill="black" stroke="black" points="4825,-2030.61 4835.59,-2030.26 4827.1,-2023.93 4825,-2030.61"/>
</g>
<!-- UserDataServiceResolver&#45;&gt;ReentrancyGuard -->
<g id="edge44" class="edge" data-name="UserDataServiceResolver-&gt;ReentrancyGuard">

<path fill="none" stroke="black" d="M4042.86,-1763.18C4052.05,-1710.41 4078.98,-1555.78 4090.15,-1491.63"/>
<polygon fill="black" stroke="black" points="4093.66,-1491.9 4091.92,-1481.45 4086.76,-1490.7 4093.66,-1491.9"/>
</g>
<!-- AllResolvers -->
<g id="node52" class="node" pointer-events="visible" data-name="AllResolvers">

<ellipse fill="none" stroke="black" cx="2197.88" cy="-2456.02" rx="61.42" ry="18"/>
<text text-anchor="middle" x="2197.88" y="-2451.82" font-family="Times,serif" font-size="14.00">AllResolvers</text>
</g>
<!-- UserDataServiceResolver&#45;&gt;AllResolvers -->
<g id="edge41" class="edge" data-name="UserDataServiceResolver-&gt;AllResolvers">

<path fill="none" stroke="black" d="M3994.66,-1797.7C3742.2,-1890.2 2505.68,-2343.24 2245.85,-2438.45"/>
<polygon fill="black" stroke="black" points="2244.5,-2435.21 2236.31,-2441.94 2246.91,-2441.78 2244.5,-2435.21"/>
</g>
<!-- NameResolver -->
<g id="node58" class="node" pointer-events="visible" data-name="NameResolver">

<ellipse fill="none" stroke="black" cx="1624.7" cy="-1360.66" rx="68.34" ry="18"/>
<text text-anchor="middle" x="1624.7" y="-1356.46" font-family="Times,serif" font-size="14.00">NameResolver</text>
</g>
<!-- AllResolvers&#45;&gt;NameResolver -->
<g id="edge51" class="edge" data-name="AllResolvers-&gt;NameResolver">

<path fill="none" stroke="black" d="M2188.41,-2437.92C2121.47,-2310 1719.96,-1542.71 1638.95,-1387.88"/>
<polygon fill="black" stroke="black" points="1641.82,-1385.82 1634.08,-1378.58 1635.62,-1389.07 1641.82,-1385.82"/>
</g>
<!-- ProfileResolver -->
<g id="node60" class="node" pointer-events="visible" data-name="ProfileResolver">

<ellipse fill="none" stroke="black" cx="1653.52" cy="-1682.1" rx="71.79" ry="18"/>
<text text-anchor="middle" x="1653.52" y="-1677.9" font-family="Times,serif" font-size="14.00">ProfileResolver</text>
</g>
<!-- AllResolvers&#45;&gt;ProfileResolver -->
<g id="edge52" class="edge" data-name="AllResolvers-&gt;ProfileResolver">

<path fill="none" stroke="black" d="M2185.23,-2438.03C2113.43,-2335.96 1757.5,-1829.93 1672,-1708.39"/>
<polygon fill="black" stroke="black" points="1674.72,-1706.16 1666.1,-1700 1668.99,-1710.19 1674.72,-1706.16"/>
</g>
<!-- MetaDataResolver -->
<g id="node61" class="node" pointer-events="visible" data-name="MetaDataResolver">

<ellipse fill="none" stroke="black" cx="1764.54" cy="-1985.13" rx="83.37" ry="18"/>
<text text-anchor="middle" x="1764.54" y="-1980.93" font-family="Times,serif" font-size="14.00">MetaDataResolver</text>
</g>
<!-- AllResolvers&#45;&gt;MetaDataResolver -->
<g id="edge53" class="edge" data-name="AllResolvers-&gt;MetaDataResolver">

<path fill="none" stroke="black" d="M2181.69,-2438.42C2115.53,-2366.53 1865.65,-2095 1787.83,-2010.43"/>
<polygon fill="black" stroke="black" points="1790.4,-2008.06 1781.05,-2003.07 1785.25,-2012.8 1790.4,-2008.06"/>
</g>
<!-- IdentResolver -->
<g id="node62" class="node" pointer-events="visible" data-name="IdentResolver">

<ellipse fill="none" stroke="black" cx="1950.22" cy="-2249.1" rx="65.41" ry="18"/>
<text text-anchor="middle" x="1950.22" y="-2244.9" font-family="Times,serif" font-size="14.00">IdentResolver</text>
</g>
<!-- AllResolvers&#45;&gt;IdentResolver -->
<g id="edge50" class="edge" data-name="AllResolvers-&gt;IdentResolver">

<path fill="none" stroke="black" d="M2177.19,-2438.73C2133.03,-2401.84 2029.46,-2315.31 1978.95,-2273.1"/>
<polygon fill="black" stroke="black" points="1980.94,-2270.21 1971.02,-2266.48 1976.45,-2275.58 1980.94,-2270.21"/>
</g>
<!-- UDS -->
<g id="node53" class="node" pointer-events="visible" data-name="UDS">

<ellipse fill="none" stroke="black" cx="2185.87" cy="-1487.95" rx="30.21" ry="18"/>
<text text-anchor="middle" x="2185.87" y="-1483.75" font-family="Times,serif" font-size="14.00">UDS</text>
</g>
<!-- RoutesResolver -->
<g id="node54" class="node" pointer-events="visible" data-name="RoutesResolver">

<ellipse fill="none" stroke="black" cx="2619.87" cy="-2173.95" rx="72.38" ry="18"/>
<text text-anchor="middle" x="2619.87" y="-2169.75" font-family="Times,serif" font-size="14.00">RoutesResolver</text>
</g>
<!-- IEIP721U -->
<g id="node55" class="node" pointer-events="visible" data-name="IEIP721U">

<ellipse fill="none" stroke="black" cx="2598.35" cy="-1487.95" rx="50.4" ry="18"/>
<text text-anchor="middle" x="2598.35" y="-1483.75" font-family="Times,serif" font-size="14.00">IEIP721U</text>
</g>
<!-- IERC721 -->
<g id="node56" class="node" pointer-events="visible" data-name="IERC721">

<ellipse fill="none" stroke="black" cx="2768.07" cy="-1487.95" rx="47.54" ry="18"/>
<text text-anchor="middle" x="2768.07" y="-1483.75" font-family="Times,serif" font-size="14.00">IERC721</text>
</g>
<!-- IEIP721U&#45;&gt;IERC721 -->
<g id="edge46" class="edge" data-name="IEIP721U-&gt;IERC721">

<path fill="none" stroke="black" d="M2648.81,-1487.95C2668.12,-1487.95 2690.28,-1487.95 2710.22,-1487.95"/>
<polygon fill="black" stroke="black" points="2710.42,-1491.45 2720.42,-1487.95 2710.42,-1484.45 2710.42,-1491.45"/>
</g>
<!-- IUserRegistry -->
<g id="node57" class="node" pointer-events="visible" data-name="IUserRegistry">

<ellipse fill="none" stroke="black" cx="3004.87" cy="-1487.95" rx="65.42" ry="18"/>
<text text-anchor="middle" x="3004.87" y="-1483.75" font-family="Times,serif" font-size="14.00">IUserRegistry</text>
</g>
<!-- BaseResolver -->
<g id="node59" class="node" pointer-events="visible" data-name="BaseResolver">

<ellipse fill="none" stroke="black" cx="1680.07" cy="-1042.72" rx="64.27" ry="18"/>
<text text-anchor="middle" x="1680.07" y="-1038.52" font-family="Times,serif" font-size="14.00">BaseResolver</text>
</g>
<!-- NameResolver&#45;&gt;BaseResolver -->
<g id="edge47" class="edge" data-name="NameResolver-&gt;BaseResolver">

<path fill="none" stroke="black" d="M1627.84,-1342.66C1637.03,-1289.88 1663.95,-1135.25 1675.12,-1071.11"/>
<polygon fill="black" stroke="black" points="1678.63,-1071.37 1676.9,-1060.92 1671.73,-1070.17 1678.63,-1071.37"/>
</g>
<!-- BaseResolver&#45;&gt;BytesUtils -->
<g id="edge56" class="edge" data-name="BaseResolver-&gt;BytesUtils">

<path fill="none" stroke="black" d="M1689.45,-1060.65C1772.19,-1218.77 2376.5,-2373.61 2476.63,-2564.96"/>
<polygon fill="black" stroke="black" points="2473.65,-2566.82 2481.39,-2574.06 2479.85,-2563.57 2473.65,-2566.82"/>
</g>
<!-- BaseResolver&#45;&gt;ERC165 -->
<g id="edge55" class="edge" data-name="BaseResolver-&gt;ERC165">

<path fill="none" stroke="black" d="M1719.39,-1028.31C1959.9,-940.19 3230.44,-474.68 3479.52,-383.42"/>
<polygon fill="black" stroke="black" points="3480.77,-386.69 3488.95,-379.97 3478.36,-380.12 3480.77,-386.69"/>
</g>
<!-- ProfileResolver&#45;&gt;BaseResolver -->
<g id="edge48" class="edge" data-name="ProfileResolver-&gt;BaseResolver">

<path fill="none" stroke="black" d="M1654.27,-1664C1657.98,-1574.7 1674.32,-1181.08 1678.88,-1071.26"/>
<polygon fill="black" stroke="black" points="1682.39,-1071.11 1679.31,-1060.97 1675.4,-1070.82 1682.39,-1071.11"/>
</g>
<!-- MetaDataResolver&#45;&gt;BaseResolver -->
<g id="edge49" class="edge" data-name="MetaDataResolver-&gt;BaseResolver">

<path fill="none" stroke="black" d="M1762.89,-1966.73C1752.43,-1850.03 1695.36,-1213.31 1682.6,-1070.96"/>
<polygon fill="black" stroke="black" points="1686.07,-1070.5 1681.69,-1060.86 1679.1,-1071.13 1686.07,-1070.5"/>
</g>
<!-- IdentResolver&#45;&gt;BaseResolver -->
<g id="edge54" class="edge" data-name="IdentResolver-&gt;BaseResolver">

<path fill="none" stroke="black" d="M1946.19,-2231.11C1915.87,-2095.74 1723.7,-1237.57 1686.35,-1070.78"/>
<polygon fill="black" stroke="black" points="1689.72,-1069.81 1684.12,-1060.81 1682.89,-1071.34 1689.72,-1069.81"/>
</g>
<!-- IUserRecord -->
<g id="node63" class="node" pointer-events="visible" data-name="IUserRecord">

<ellipse fill="none" stroke="black" cx="2607.87" cy="-1095.95" rx="60.25" ry="18"/>
<text text-anchor="middle" x="2607.87" y="-1091.75" font-family="Times,serif" font-size="14.00">IUserRecord</text>
</g>
<!-- IProxyCreationCallback -->
<g id="node64" class="node" pointer-events="visible" data-name="IProxyCreationCallback">

<ellipse fill="none" stroke="black" cx="2652.87" cy="-1683.95" rx="104.8" ry="18"/>
<text text-anchor="middle" x="2652.87" y="-1679.75" font-family="Times,serif" font-size="14.00">IProxyCreationCallback</text>
</g>
<!-- IProxy -->
<g id="node65" class="node" pointer-events="visible" data-name="IProxy">

<ellipse fill="none" stroke="black" cx="3172.87" cy="-1879.95" rx="37.15" ry="18"/>
<text text-anchor="middle" x="3172.87" y="-1875.75" font-family="Times,serif" font-size="14.00">IProxy</text>
</g>
<!-- AKXProxy -->
<g id="node66" class="node" pointer-events="visible" data-name="AKXProxy">

<ellipse fill="none" stroke="black" cx="2896.87" cy="-1095.95" rx="55.06" ry="18"/>
<text text-anchor="middle" x="2896.87" y="-1091.75" font-family="Times,serif" font-size="14.00">AKXProxy</text>
</g>
</g>
</svg>