<?xml version="1.0" standalone="no"?>
<svg xmlns="http://www.w3.org/2000/svg" xmlns:xlink="http://www.w3.org/1999/xlink" width="3421pt" height="2015pt" viewBox="0.00 0.00 3421 2015">
<g id="graph0" class="graph" transform="translate(4,2011) scale(1)" data-name="G">

<polygon fill="white" stroke="none" points="-4,4 -4,-2011 3417,-2011 3417,4 -4,4"/>
<!-- AKXMetas -->
<g id="node1" class="node" pointer-events="visible" data-name="AKXMetas">

<ellipse fill="none" stroke="black" cx="1277.86" cy="-579.11" rx="55.62" ry="18"/>
<text text-anchor="middle" x="1277.86" y="-574.91" font-family="Times,serif" font-size="14.00">AKXMetas</text>
</g>
<!-- AKXSetup -->
<g id="node2" class="node" pointer-events="visible" data-name="AKXSetup">

<ellipse fill="none" stroke="black" cx="1490.01" cy="-538.14" rx="53.91" ry="18"/>
<text text-anchor="middle" x="1490.01" y="-533.94" font-family="Times,serif" font-size="14.00">AKXSetup</text>
</g>
<!-- IUserRegistry -->
<g id="node3" class="node" pointer-events="visible" data-name="IUserRegistry">

<ellipse fill="none" stroke="black" cx="2081.24" cy="-962.64" rx="65.42" ry="18"/>
<text text-anchor="middle" x="2081.24" y="-958.44" font-family="Times,serif" font-size="14.00">IUserRegistry</text>
</g>
<!-- IAuth -->
<g id="node4" class="node" pointer-events="visible" data-name="IAuth">

<ellipse fill="none" stroke="black" cx="1396.88" cy="-327.23" rx="33.63" ry="18"/>
<text text-anchor="middle" x="1396.88" y="-323.03" font-family="Times,serif" font-size="14.00">IAuth</text>
</g>
<!-- IAKX -->
<g id="node5" class="node" pointer-events="visible" data-name="IAKX">

<ellipse fill="none" stroke="black" cx="1556.14" cy="-609.09" rx="35.35" ry="18"/>
<text text-anchor="middle" x="1556.14" y="-604.89" font-family="Times,serif" font-size="14.00">IAKX</text>
</g>
<!-- IModule -->
<g id="node6" class="node" pointer-events="visible" data-name="IModule">

<ellipse fill="none" stroke="black" cx="2898.2" cy="-725.44" rx="44.09" ry="18"/>
<text text-anchor="middle" x="2898.2" y="-721.24" font-family="Times,serif" font-size="14.00">IModule</text>
</g>
<!-- IModuleRegistry -->
<g id="node7" class="node" pointer-events="visible" data-name="IModuleRegistry">

<ellipse fill="none" stroke="black" cx="2888.86" cy="-889.45" rx="77.04" ry="18"/>
<text text-anchor="middle" x="2888.86" y="-885.25" font-family="Times,serif" font-size="14.00">IModuleRegistry</text>
</g>
<!-- IUserRecord -->
<g id="node8" class="node" pointer-events="visible" data-name="IUserRecord">

<ellipse fill="none" stroke="black" cx="1572.24" cy="-1340.64" rx="60.25" ry="18"/>
<text text-anchor="middle" x="1572.24" y="-1336.44" font-family="Times,serif" font-size="14.00">IUserRecord</text>
</g>
<!-- IEIP721U -->
<g id="node9" class="node" pointer-events="visible" data-name="IEIP721U">

<ellipse fill="none" stroke="black" cx="2129.61" cy="-664.44" rx="50.4" ry="18"/>
<text text-anchor="middle" x="2129.61" y="-660.24" font-family="Times,serif" font-size="14.00">IEIP721U</text>
</g>
<!-- IERC721 -->
<g id="node10" class="node" pointer-events="visible" data-name="IERC721">

<ellipse fill="none" stroke="black" cx="2236.66" cy="-648.45" rx="47.54" ry="18"/>
<text text-anchor="middle" x="2236.66" y="-644.25" font-family="Times,serif" font-size="14.00">IERC721</text>
</g>
<!-- IEIP721U&#45;&gt;IERC721 -->
<g id="edge1" class="edge" data-name="IEIP721U-&gt;IERC721">

<path fill="none" stroke="black" d="M2176.25,-657.47C2178.24,-657.18 2180.24,-656.88 2182.24,-656.58"/>
<polygon fill="black" stroke="black" points="2182.83,-660.03 2192.2,-655.09 2181.79,-653.11 2182.83,-660.03"/>
</g>
<!-- BaseUserRegistry -->
<g id="node11" class="node" pointer-events="visible" data-name="BaseUserRegistry">

<ellipse fill="none" stroke="black" cx="1006.87" cy="-524.91" rx="80.53" ry="18"/>
<text text-anchor="middle" x="1006.87" y="-520.71" font-family="Times,serif" font-size="14.00">BaseUserRegistry</text>
</g>
<!-- ERC721 -->
<g id="node12" class="node" pointer-events="visible" data-name="ERC721">

<ellipse fill="none" stroke="black" cx="788.95" cy="-388.68" rx="44.11" ry="18"/>
<text text-anchor="middle" x="788.95" y="-384.48" font-family="Times,serif" font-size="14.00">ERC721</text>
</g>
<!-- BaseUserRegistry&#45;&gt;ERC721 -->
<g id="edge2" class="edge" data-name="BaseUserRegistry-&gt;ERC721">

<path fill="none" stroke="black" d="M979.71,-507.93C939.66,-482.89 864.86,-436.13 821.78,-409.2"/>
<polygon fill="black" stroke="black" points="823.43,-406.1 813.1,-403.77 819.72,-412.04 823.43,-406.1"/>
</g>
<!-- Ownable -->
<g id="node13" class="node" pointer-events="visible" data-name="Ownable">

<ellipse fill="none" stroke="black" cx="857.63" cy="-261.57" rx="45.79" ry="18"/>
<text text-anchor="middle" x="857.63" y="-257.37" font-family="Times,serif" font-size="14.00">Ownable</text>
</g>
<!-- BaseUserRegistry&#45;&gt;Ownable -->
<g id="edge3" class="edge" data-name="BaseUserRegistry-&gt;Ownable">

<path fill="none" stroke="black" d="M996.61,-506.81C970.83,-461.32 903.22,-342.01 872.82,-288.37"/>
<polygon fill="black" stroke="black" points="875.74,-286.43 867.76,-279.45 869.65,-289.88 875.74,-286.43"/>
</g>
<!-- NameResolver -->
<g id="node14" class="node" pointer-events="visible" data-name="NameResolver">

<ellipse fill="none" stroke="black" cx="1842.62" cy="-1124.44" rx="68.34" ry="18"/>
<text text-anchor="middle" x="1842.62" y="-1120.24" font-family="Times,serif" font-size="14.00">NameResolver</text>
</g>
<!-- BaseResolver -->
<g id="node15" class="node" pointer-events="visible" data-name="BaseResolver">

<ellipse fill="none" stroke="black" cx="1920.18" cy="-1310.79" rx="64.27" ry="18"/>
<text text-anchor="middle" x="1920.18" y="-1306.59" font-family="Times,serif" font-size="14.00">BaseResolver</text>
</g>
<!-- NameResolver&#45;&gt;BaseResolver -->
<g id="edge4" class="edge" data-name="NameResolver-&gt;BaseResolver">

<path fill="none" stroke="black" d="M1850.2,-1142.65C1863.85,-1175.43 1892.63,-1244.58 1908.7,-1283.2"/>
<polygon fill="black" stroke="black" points="1905.61,-1284.89 1912.69,-1292.78 1912.08,-1282.2 1905.61,-1284.89"/>
</g>
<!-- ERC165 -->
<g id="node20" class="node" pointer-events="visible" data-name="ERC165">

<ellipse fill="none" stroke="black" cx="1673.19" cy="-1460" rx="44.11" ry="18"/>
<text text-anchor="middle" x="1673.19" y="-1455.8" font-family="Times,serif" font-size="14.00">ERC165</text>
</g>
<!-- BaseResolver&#45;&gt;ERC165 -->
<g id="edge12" class="edge" data-name="BaseResolver-&gt;ERC165">

<path fill="none" stroke="black" d="M1892.8,-1327.33C1847.28,-1354.83 1756.16,-1409.88 1706.8,-1439.69"/>
<polygon fill="black" stroke="black" points="1704.84,-1436.78 1698.09,-1444.95 1708.46,-1442.78 1704.84,-1436.78"/>
</g>
<!-- BytesUtils -->
<g id="node21" class="node" pointer-events="visible" data-name="BytesUtils">

<ellipse fill="none" stroke="black" cx="2168.34" cy="-1137.1" rx="51.63" ry="18"/>
<text text-anchor="middle" x="2168.34" y="-1132.9" font-family="Times,serif" font-size="14.00">BytesUtils</text>
</g>
<!-- BaseResolver&#45;&gt;BytesUtils -->
<g id="edge13" class="edge" data-name="BaseResolver-&gt;BytesUtils">

<path fill="none" stroke="black" d="M1944.43,-1293.82C1989.62,-1262.19 2086.69,-1194.25 2136.86,-1159.13"/>
<polygon fill="black" stroke="black" points="2138.9,-1161.98 2145.08,-1153.38 2134.88,-1156.25 2138.9,-1161.98"/>
</g>
<!-- ProfileResolver -->
<g id="node16" class="node" pointer-events="visible" data-name="ProfileResolver">

<ellipse fill="none" stroke="black" cx="1904.92" cy="-1074.64" rx="71.79" ry="18"/>
<text text-anchor="middle" x="1904.92" y="-1070.44" font-family="Times,serif" font-size="14.00">ProfileResolver</text>
</g>
<!-- ProfileResolver&#45;&gt;BaseResolver -->
<g id="edge5" class="edge" data-name="ProfileResolver-&gt;BaseResolver">

<path fill="none" stroke="black" d="M1906.09,-1092.78C1908.73,-1133.64 1915.16,-1233.18 1918.34,-1282.34"/>
<polygon fill="black" stroke="black" points="1914.87,-1282.83 1919.01,-1292.59 1921.85,-1282.38 1914.87,-1282.83"/>
</g>
<!-- MetaDataResolver -->
<g id="node17" class="node" pointer-events="visible" data-name="MetaDataResolver">

<ellipse fill="none" stroke="black" cx="1860.74" cy="-1202.07" rx="83.37" ry="18"/>
<text text-anchor="middle" x="1860.74" y="-1197.87" font-family="Times,serif" font-size="14.00">MetaDataResolver</text>
</g>
<!-- MetaDataResolver&#45;&gt;BaseResolver -->
<g id="edge6" class="edge" data-name="MetaDataResolver-&gt;BaseResolver">

<path fill="none" stroke="black" d="M1870.56,-1220.02C1880.06,-1237.41 1894.6,-1264 1905.49,-1283.91"/>
<polygon fill="black" stroke="black" points="1902.48,-1285.71 1910.35,-1292.81 1908.62,-1282.36 1902.48,-1285.71"/>
</g>
<!-- AllResolvers -->
<g id="node18" class="node" pointer-events="visible" data-name="AllResolvers">

<ellipse fill="none" stroke="black" cx="1630.7" cy="-1037.89" rx="61.42" ry="18"/>
<text text-anchor="middle" x="1630.7" y="-1033.69" font-family="Times,serif" font-size="14.00">AllResolvers</text>
</g>
<!-- AllResolvers&#45;&gt;NameResolver -->
<g id="edge8" class="edge" data-name="AllResolvers-&gt;NameResolver">

<path fill="none" stroke="black" d="M1666.65,-1052.57C1702.25,-1067.11 1756.93,-1089.44 1795.88,-1105.35"/>
<polygon fill="black" stroke="black" points="1794.85,-1108.71 1805.43,-1109.25 1797.49,-1102.23 1794.85,-1108.71"/>
</g>
<!-- AllResolvers&#45;&gt;ProfileResolver -->
<g id="edge9" class="edge" data-name="AllResolvers-&gt;ProfileResolver">

<path fill="none" stroke="black" d="M1686.85,-1045.42C1728.66,-1051.02 1786.12,-1058.72 1831.56,-1064.81"/>
<polygon fill="black" stroke="black" points="1831.27,-1068.3 1841.65,-1066.16 1832.2,-1061.36 1831.27,-1068.3"/>
</g>
<!-- AllResolvers&#45;&gt;MetaDataResolver -->
<g id="edge10" class="edge" data-name="AllResolvers-&gt;MetaDataResolver">

<path fill="none" stroke="black" d="M1654.45,-1054.84C1695.84,-1084.38 1781.24,-1145.33 1828.14,-1178.8"/>
<polygon fill="black" stroke="black" points="1826.25,-1181.76 1836.43,-1184.72 1830.32,-1176.06 1826.25,-1181.76"/>
</g>
<!-- IdentResolver -->
<g id="node19" class="node" pointer-events="visible" data-name="IdentResolver">

<ellipse fill="none" stroke="black" cx="1719.45" cy="-1253.63" rx="65.41" ry="18"/>
<text text-anchor="middle" x="1719.45" y="-1249.43" font-family="Times,serif" font-size="14.00">IdentResolver</text>
</g>
<!-- AllResolvers&#45;&gt;IdentResolver -->
<g id="edge7" class="edge" data-name="AllResolvers-&gt;IdentResolver">

<path fill="none" stroke="black" d="M1638.12,-1055.92C1653.65,-1093.67 1689.68,-1181.27 1708.13,-1226.11"/>
<polygon fill="black" stroke="black" points="1704.96,-1227.59 1712,-1235.51 1711.43,-1224.93 1704.96,-1227.59"/>
</g>
<!-- IdentResolver&#45;&gt;BaseResolver -->
<g id="edge11" class="edge" data-name="IdentResolver-&gt;BaseResolver">

<path fill="none" stroke="black" d="M1765,-1266.6C1794.75,-1275.07 1833.76,-1286.18 1865.23,-1295.14"/>
<polygon fill="black" stroke="black" points="1864.58,-1298.6 1875.16,-1297.97 1866.5,-1291.86 1864.58,-1298.6"/>
</g>
<!-- RoutesResolver -->
<g id="node22" class="node" pointer-events="visible" data-name="RoutesResolver">

<ellipse fill="none" stroke="black" cx="2025.24" cy="-584.64" rx="72.38" ry="18"/>
<text text-anchor="middle" x="2025.24" y="-580.44" font-family="Times,serif" font-size="14.00">RoutesResolver</text>
</g>
<!-- Pricing -->
<g id="node23" class="node" pointer-events="visible" data-name="Pricing">

<ellipse fill="none" stroke="black" cx="327.29" cy="-1547.06" rx="38.86" ry="18"/>
<text text-anchor="middle" x="327.29" y="-1542.86" font-family="Times,serif" font-size="14.00">Pricing</text>
</g>
<!-- LabzERC2055 -->
<g id="node24" class="node" pointer-events="visible" data-name="LabzERC2055">

<ellipse fill="none" stroke="black" cx="561.46" cy="-1139.57" rx="68.36" ry="18"/>
<text text-anchor="middle" x="561.46" y="-1135.37" font-family="Times,serif" font-size="14.00">LabzERC2055</text>
</g>
<!-- ERC2055 -->
<g id="node25" class="node" pointer-events="visible" data-name="ERC2055">

<ellipse fill="none" stroke="black" cx="253.03" cy="-1124.14" rx="49.26" ry="18"/>
<text text-anchor="middle" x="253.03" y="-1119.94" font-family="Times,serif" font-size="14.00">ERC2055</text>
</g>
<!-- LabzERC2055&#45;&gt;ERC2055 -->
<g id="edge14" class="edge" data-name="LabzERC2055-&gt;ERC2055">

<path fill="none" stroke="black" d="M494.15,-1136.2C439.81,-1133.48 364.1,-1129.7 312.09,-1127.09"/>
<polygon fill="black" stroke="black" points="312.18,-1123.59 302.02,-1126.59 311.83,-1130.58 312.18,-1123.59"/>
</g>
<!-- ReentrancyGuard -->
<g id="node26" class="node" pointer-events="visible" data-name="ReentrancyGuard">

<ellipse fill="none" stroke="black" cx="874.81" cy="-989.39" rx="79.28" ry="18"/>
<text text-anchor="middle" x="874.81" y="-985.19" font-family="Times,serif" font-size="14.00">ReentrancyGuard</text>
</g>
<!-- LabzERC2055&#45;&gt;ReentrancyGuard -->
<g id="edge15" class="edge" data-name="LabzERC2055-&gt;ReentrancyGuard">

<path fill="none" stroke="black" d="M594.4,-1123.78C651.2,-1096.56 767.55,-1040.8 831.07,-1010.36"/>
<polygon fill="black" stroke="black" points="832.91,-1013.35 840.41,-1005.87 829.88,-1007.04 832.91,-1013.35"/>
</g>
<!-- BuyingLogic -->
<g id="node27" class="node" pointer-events="visible" data-name="BuyingLogic">

<ellipse fill="none" stroke="black" cx="519.5" cy="-1440.13" rx="62" ry="18"/>
<text text-anchor="middle" x="519.5" y="-1435.93" font-family="Times,serif" font-size="14.00">BuyingLogic</text>
</g>
<!-- LabzERC2055&#45;&gt;BuyingLogic -->
<g id="edge16" class="edge" data-name="LabzERC2055-&gt;BuyingLogic">

<path fill="none" stroke="black" d="M558.9,-1157.92C551.81,-1208.66 531.92,-1351.11 523.43,-1411.97"/>
<polygon fill="black" stroke="black" points="519.94,-1411.63 522.02,-1422.02 526.87,-1412.6 519.94,-1411.63"/>
</g>
<!-- IERC2055 -->
<g id="node59" class="node" pointer-events="visible" data-name="IERC2055">

<ellipse fill="none" stroke="black" cx="52.1" cy="-1052.77" rx="52.2" ry="18"/>
<text text-anchor="middle" x="52.1" y="-1048.57" font-family="Times,serif" font-size="14.00">IERC2055</text>
</g>
<!-- ERC2055&#45;&gt;IERC2055 -->
<g id="edge48" class="edge" data-name="ERC2055-&gt;IERC2055">

<path fill="none" stroke="black" d="M217.57,-1111.54C184.41,-1099.76 134.69,-1082.1 98.41,-1069.22"/>
<polygon fill="black" stroke="black" points="99.15,-1065.77 88.56,-1065.72 96.81,-1072.36 99.15,-1065.77"/>
</g>
<!-- EIP712 -->
<g id="node61" class="node" pointer-events="visible" data-name="EIP712">

<ellipse fill="none" stroke="black" cx="61.95" cy="-1176.16" rx="40.01" ry="18"/>
<text text-anchor="middle" x="61.95" y="-1171.96" font-family="Times,serif" font-size="14.00">EIP712</text>
</g>
<!-- ERC2055&#45;&gt;EIP712 -->
<g id="edge49" class="edge" data-name="ERC2055-&gt;EIP712">

<path fill="none" stroke="black" d="M213.44,-1134.92C182.13,-1143.44 138.46,-1155.33 106.04,-1164.16"/>
<polygon fill="black" stroke="black" points="105.1,-1160.79 96.37,-1166.79 106.94,-1167.54 105.1,-1160.79"/>
</g>
<!-- BuyingLogic&#45;&gt;Pricing -->
<g id="edge52" class="edge" data-name="BuyingLogic-&gt;Pricing">

<path fill="none" stroke="black" d="M490.72,-1456.14C456.06,-1475.42 397.93,-1507.76 361.15,-1528.23"/>
<polygon fill="black" stroke="black" points="359.32,-1525.24 352.28,-1533.16 362.72,-1531.36 359.32,-1525.24"/>
</g>
<!-- LibMath -->
<g id="node29" class="node" pointer-events="visible" data-name="LibMath">

<ellipse fill="none" stroke="black" cx="728.86" cy="-1565.92" rx="44.66" ry="18"/>
<text text-anchor="middle" x="728.86" y="-1561.72" font-family="Times,serif" font-size="14.00">LibMath</text>
</g>
<!-- BuyingLogic&#45;&gt;LibMath -->
<g id="edge53" class="edge" data-name="BuyingLogic-&gt;LibMath">

<path fill="none" stroke="black" d="M546.87,-1456.57C584.97,-1479.47 653.96,-1520.91 695.17,-1545.68"/>
<polygon fill="black" stroke="black" points="693.4,-1548.69 703.77,-1550.84 697.01,-1542.69 693.4,-1548.69"/>
</g>
<!-- InitModifiers -->
<g id="node28" class="node" pointer-events="visible" data-name="InitModifiers">

<ellipse fill="none" stroke="black" cx="1387.7" cy="-1176.82" rx="62.56" ry="18"/>
<text text-anchor="middle" x="1387.7" y="-1172.62" font-family="Times,serif" font-size="14.00">InitModifiers</text>
</g>
<!-- IsSelf -->
<g id="node30" class="node" pointer-events="visible" data-name="IsSelf">

<ellipse fill="none" stroke="black" cx="1293.24" cy="-962.64" rx="33.63" ry="18"/>
<text text-anchor="middle" x="1293.24" y="-958.44" font-family="Times,serif" font-size="14.00">IsSelf</text>
</g>
<!-- Hashing -->
<g id="node31" class="node" pointer-events="visible" data-name="Hashing">

<ellipse fill="none" stroke="black" cx="1303.24" cy="-1088.64" rx="43.45" ry="18"/>
<text text-anchor="middle" x="1303.24" y="-1084.44" font-family="Times,serif" font-size="14.00">Hashing</text>
</g>
<!-- AKXStates -->
<g id="node32" class="node" pointer-events="visible" data-name="AKXStates">

<ellipse fill="none" stroke="black" cx="1192.24" cy="-692.55" rx="55.05" ry="18"/>
<text text-anchor="middle" x="1192.24" y="-688.35" font-family="Times,serif" font-size="14.00">AKXStates</text>
</g>
<!-- AKXEcosystem -->
<g id="node33" class="node" pointer-events="visible" data-name="AKXEcosystem">

<ellipse fill="none" stroke="black" cx="1406.84" cy="-792.76" rx="73.59" ry="18"/>
<text text-anchor="middle" x="1406.84" y="-788.56" font-family="Times,serif" font-size="14.00">AKXEcosystem</text>
</g>
<!-- AKXEcosystem&#45;&gt;AKXMetas -->
<g id="edge22" class="edge" data-name="AKXEcosystem-&gt;AKXMetas">

<path fill="none" stroke="black" d="M1396.07,-774.91C1373.4,-737.37 1320.68,-650.04 1293.98,-605.81"/>
<polygon fill="black" stroke="black" points="1296.86,-603.81 1288.69,-597.06 1290.86,-607.43 1296.86,-603.81"/>
</g>
<!-- AKXEcosystem&#45;&gt;AKXSetup -->
<g id="edge18" class="edge" data-name="AKXEcosystem-&gt;AKXSetup">

<path fill="none" stroke="black" d="M1412.83,-774.45C1427.21,-730.41 1463.82,-618.33 1480.93,-565.93"/>
<polygon fill="black" stroke="black" points="1484.31,-566.88 1484.09,-556.29 1477.65,-564.71 1484.31,-566.88"/>
</g>
<!-- AKXEcosystem&#45;&gt;IAKX -->
<g id="edge19" class="edge" data-name="AKXEcosystem-&gt;IAKX">

<path fill="none" stroke="black" d="M1421.43,-774.81C1448.31,-741.75 1505.68,-671.17 1536.15,-633.68"/>
<polygon fill="black" stroke="black" points="1538.99,-635.74 1542.58,-625.77 1533.56,-631.32 1538.99,-635.74"/>
</g>
<!-- AKXEcosystem&#45;&gt;InitModifiers -->
<g id="edge17" class="edge" data-name="AKXEcosystem-&gt;InitModifiers">

<path fill="none" stroke="black" d="M1405.95,-810.77C1402.89,-872.11 1392.86,-1073.27 1389.12,-1148.29"/>
<polygon fill="black" stroke="black" points="1385.62,-1148.25 1388.62,-1158.41 1392.61,-1148.59 1385.62,-1148.25"/>
</g>
<!-- AKXEcosystem&#45;&gt;AKXStates -->
<g id="edge20" class="edge" data-name="AKXEcosystem-&gt;AKXStates">

<path fill="none" stroke="black" d="M1372.37,-776.66C1334.41,-758.94 1273.45,-730.47 1233.12,-711.64"/>
<polygon fill="black" stroke="black" points="1234.38,-708.37 1223.84,-707.31 1231.42,-714.71 1234.38,-708.37"/>
</g>
<!-- AKXRoles -->
<g id="node34" class="node" pointer-events="visible" data-name="AKXRoles">

<ellipse fill="none" stroke="black" cx="1641.91" cy="-758.76" rx="53.91" ry="18"/>
<text text-anchor="middle" x="1641.91" y="-754.56" font-family="Times,serif" font-size="14.00">AKXRoles</text>
</g>
<!-- AKXEcosystem&#45;&gt;AKXRoles -->
<g id="edge21" class="edge" data-name="AKXEcosystem-&gt;AKXRoles">

<path fill="none" stroke="black" d="M1470.46,-783.56C1505.08,-778.55 1547.68,-772.39 1581.75,-767.46"/>
<polygon fill="black" stroke="black" points="1582.64,-770.87 1592.03,-765.98 1581.64,-763.94 1582.64,-770.87"/>
</g>
<!-- AccessControlEnumerable -->
<g id="node35" class="node" pointer-events="visible" data-name="AccessControlEnumerable">

<ellipse fill="none" stroke="black" cx="1659.74" cy="-815.27" rx="114.59" ry="18"/>
<text text-anchor="middle" x="1659.74" y="-811.07" font-family="Times,serif" font-size="14.00">AccessControlEnumerable</text>
</g>
<!-- AKXEcosystem&#45;&gt;AccessControlEnumerable -->
<g id="edge23" class="edge" data-name="AKXEcosystem-&gt;AccessControlEnumerable">

<path fill="none" stroke="black" d="M1476.28,-798.94C1498.9,-800.95 1524.6,-803.24 1549.45,-805.46"/>
<polygon fill="black" stroke="black" points="1549.39,-808.96 1559.66,-806.36 1550.01,-801.99 1549.39,-808.96"/>
</g>
<!-- Auth -->
<g id="node36" class="node" pointer-events="visible" data-name="Auth">

<ellipse fill="none" stroke="black" cx="1391.76" cy="-509.59" rx="30.2" ry="18"/>
<text text-anchor="middle" x="1391.76" y="-505.39" font-family="Times,serif" font-size="14.00">Auth</text>
</g>
<!-- AKXEcosystem&#45;&gt;Auth -->
<g id="edge24" class="edge" data-name="AKXEcosystem-&gt;Auth">

<path fill="none" stroke="black" d="M1405.88,-774.61C1403.32,-726.57 1396.35,-595.75 1393.26,-537.83"/>
<polygon fill="black" stroke="black" points="1396.74,-537.38 1392.72,-527.59 1389.75,-537.76 1396.74,-537.38"/>
</g>
<!-- Auth&#45;&gt;IAuth -->
<g id="edge25" class="edge" data-name="Auth-&gt;IAuth">

<path fill="none" stroke="black" d="M1392.27,-491.44C1393.16,-459.63 1395.01,-393.58 1396.08,-355.66"/>
<polygon fill="black" stroke="black" points="1399.59,-355.4 1396.37,-345.31 1392.59,-355.21 1399.59,-355.4"/>
</g>
<!-- Lock -->
<g id="node37" class="node" pointer-events="visible" data-name="Lock">

<ellipse fill="none" stroke="black" cx="2236.24" cy="-521.64" rx="30.76" ry="18"/>
<text text-anchor="middle" x="2236.24" y="-517.44" font-family="Times,serif" font-size="14.00">Lock</text>
</g>
<!-- BaseModule -->
<g id="node38" class="node" pointer-events="visible" data-name="BaseModule">

<ellipse fill="none" stroke="black" cx="3123.15" cy="-662.23" rx="59.7" ry="18"/>
<text text-anchor="middle" x="3123.15" y="-658.03" font-family="Times,serif" font-size="14.00">BaseModule</text>
</g>
<!-- BaseModule&#45;&gt;IModule -->
<g id="edge26" class="edge" data-name="BaseModule-&gt;IModule">

<path fill="none" stroke="black" d="M3079.24,-674.57C3040.46,-685.47 2984.1,-701.3 2944.59,-712.4"/>
<polygon fill="black" stroke="black" points="2943.61,-709.04 2934.93,-715.12 2945.5,-715.78 2943.61,-709.04"/>
</g>
<!-- Initializable -->
<g id="node39" class="node" pointer-events="visible" data-name="Initializable">

<ellipse fill="none" stroke="black" cx="3356.3" cy="-600.69" rx="57.3" ry="18"/>
<text text-anchor="middle" x="3356.3" y="-596.49" font-family="Times,serif" font-size="14.00">Initializable</text>
</g>
<!-- BaseModule&#45;&gt;Initializable -->
<g id="edge27" class="edge" data-name="BaseModule-&gt;Initializable">

<path fill="none" stroke="black" d="M3168.38,-650.29C3206.79,-640.15 3262,-625.58 3302.64,-614.85"/>
<polygon fill="black" stroke="black" points="3303.61,-618.22 3312.38,-612.28 3301.82,-611.45 3303.61,-618.22"/>
</g>
<!-- DidRegistry -->
<g id="node40" class="node" pointer-events="visible" data-name="DidRegistry">

<ellipse fill="none" stroke="black" cx="1759.24" cy="-458.64" rx="58.49" ry="18"/>
<text text-anchor="middle" x="1759.24" y="-454.44" font-family="Times,serif" font-size="14.00">DidRegistry</text>
</g>
<!-- IProxyCreationCallback -->
<g id="node41" class="node" pointer-events="visible" data-name="IProxyCreationCallback">

<ellipse fill="none" stroke="black" cx="1806.24" cy="-962.64" rx="104.8" ry="18"/>
<text text-anchor="middle" x="1806.24" y="-958.44" font-family="Times,serif" font-size="14.00">IProxyCreationCallback</text>
</g>
<!-- IProxy -->
<g id="node42" class="node" pointer-events="visible" data-name="IProxy">

<ellipse fill="none" stroke="black" cx="1990.24" cy="-1466.64" rx="37.15" ry="18"/>
<text text-anchor="middle" x="1990.24" y="-1462.44" font-family="Times,serif" font-size="14.00">IProxy</text>
</g>
<!-- AKXProxy -->
<g id="node43" class="node" pointer-events="visible" data-name="AKXProxy">

<ellipse fill="none" stroke="black" cx="1315.24" cy="-1466.64" rx="55.06" ry="18"/>
<text text-anchor="middle" x="1315.24" y="-1462.44" font-family="Times,serif" font-size="14.00">AKXProxy</text>
</g>
<!-- AKXWalletFactory -->
<g id="node44" class="node" pointer-events="visible" data-name="AKXWalletFactory">

<ellipse fill="none" stroke="black" cx="2229.24" cy="-1466.64" rx="87.39" ry="18"/>
<text text-anchor="middle" x="2229.24" y="-1462.44" font-family="Times,serif" font-size="14.00">AKXWalletFactory</text>
</g>
<!-- UserDataServiceResolver -->
<g id="node45" class="node" pointer-events="visible" data-name="UserDataServiceResolver">

<ellipse fill="none" stroke="black" cx="1292.43" cy="-838.06" rx="110.57" ry="18"/>
<text text-anchor="middle" x="1292.43" y="-833.86" font-family="Times,serif" font-size="14.00">UserDataServiceResolver</text>
</g>
<!-- UserDataServiceResolver&#45;&gt;BaseUserRegistry -->
<g id="edge30" class="edge" data-name="UserDataServiceResolver-&gt;BaseUserRegistry">

<path fill="none" stroke="black" d="M1275.84,-819.87C1227.42,-766.78 1086.19,-611.89 1030.16,-550.45"/>
<polygon fill="black" stroke="black" points="1032.47,-547.79 1023.14,-542.76 1027.3,-552.51 1032.47,-547.79"/>
</g>
<!-- UserDataServiceResolver&#45;&gt;AllResolvers -->
<g id="edge28" class="edge" data-name="UserDataServiceResolver-&gt;AllResolvers">

<path fill="none" stroke="black" d="M1321.85,-855.45C1383.57,-891.9 1526.4,-976.28 1593.99,-1016.2"/>
<polygon fill="black" stroke="black" points="1592.62,-1019.46 1603.01,-1021.53 1596.18,-1013.43 1592.62,-1019.46"/>
</g>
<!-- UserDataServiceResolver&#45;&gt;ReentrancyGuard -->
<g id="edge31" class="edge" data-name="UserDataServiceResolver-&gt;ReentrancyGuard">

<path fill="none" stroke="black" d="M1246.94,-854.54C1168.73,-882.88 1009.25,-940.67 926.78,-970.56"/>
<polygon fill="black" stroke="black" points="925.33,-967.36 917.12,-974.06 927.71,-973.94 925.33,-967.36"/>
</g>
<!-- UserDataServiceResolver&#45;&gt;AKXRoles -->
<g id="edge32" class="edge" data-name="UserDataServiceResolver-&gt;AKXRoles">

<path fill="none" stroke="black" d="M1356.93,-823.42C1423.07,-808.42 1524.82,-785.33 1587.16,-771.19"/>
<polygon fill="black" stroke="black" points="1588.21,-774.54 1597.19,-768.91 1586.67,-767.71 1588.21,-774.54"/>
</g>
<!-- UserDataServiceResolver&#45;&gt;AccessControlEnumerable -->
<g id="edge29" class="edge" data-name="UserDataServiceResolver-&gt;AccessControlEnumerable">

<path fill="none" stroke="black" d="M1396.21,-831.62C1441.87,-828.79 1495.7,-825.45 1542.77,-822.53"/>
<polygon fill="black" stroke="black" points="1543.25,-826.01 1553.02,-821.89 1542.82,-819.02 1543.25,-826.01"/>
</g>
<!-- UDS -->
<g id="node46" class="node" pointer-events="visible" data-name="UDS">

<ellipse fill="none" stroke="black" cx="1290.24" cy="-1340.64" rx="30.21" ry="18"/>
<text text-anchor="middle" x="1290.24" y="-1336.44" font-family="Times,serif" font-size="14.00">UDS</text>
</g>
<!-- ModulesManager -->
<g id="node47" class="node" pointer-events="visible" data-name="ModulesManager">

<ellipse fill="none" stroke="black" cx="1954.45" cy="-783.8" rx="79.31" ry="18"/>
<text text-anchor="middle" x="1954.45" y="-779.6" font-family="Times,serif" font-size="14.00">ModulesManager</text>
</g>
<!-- ModulesManager&#45;&gt;AKXRoles -->
<g id="edge34" class="edge" data-name="ModulesManager-&gt;AKXRoles">

<path fill="none" stroke="black" d="M1879.59,-777.8C1826.2,-773.53 1755.23,-767.84 1704.77,-763.8"/>
<polygon fill="black" stroke="black" points="1704.9,-760.3 1694.65,-762.99 1704.34,-767.28 1704.9,-760.3"/>
</g>
<!-- ModulesManager&#45;&gt;AccessControlEnumerable -->
<g id="edge35" class="edge" data-name="ModulesManager-&gt;AccessControlEnumerable">

<path fill="none" stroke="black" d="M1882.73,-791.46C1847.39,-795.24 1804.07,-799.86 1765.05,-804.03"/>
<polygon fill="black" stroke="black" points="1764.27,-800.59 1754.7,-805.13 1765.02,-807.55 1764.27,-800.59"/>
</g>
<!-- ModuleRegistry -->
<g id="node48" class="node" pointer-events="visible" data-name="ModuleRegistry">

<ellipse fill="none" stroke="black" cx="2302.56" cy="-889.36" rx="73.6" ry="18"/>
<text text-anchor="middle" x="2302.56" y="-885.16" font-family="Times,serif" font-size="14.00">ModuleRegistry</text>
</g>
<!-- ModulesManager&#45;&gt;ModuleRegistry -->
<g id="edge33" class="edge" data-name="ModulesManager-&gt;ModuleRegistry">

<path fill="none" stroke="black" d="M2002.13,-798.26C2065.93,-817.61 2178.89,-851.86 2246.64,-872.4"/>
<polygon fill="black" stroke="black" points="2245.71,-875.78 2256.29,-875.33 2247.74,-869.08 2245.71,-875.78"/>
</g>
<!-- ModuleRegistry&#45;&gt;BytesUtils -->
<g id="edge37" class="edge" data-name="ModuleRegistry-&gt;BytesUtils">

<path fill="none" stroke="black" d="M2292.69,-907.58C2269.31,-950.72 2210.47,-1059.33 2182.95,-1110.13"/>
<polygon fill="black" stroke="black" points="2179.73,-1108.73 2178.04,-1119.19 2185.88,-1112.07 2179.73,-1108.73"/>
</g>
<!-- ModuleStorage -->
<g id="node50" class="node" pointer-events="visible" data-name="ModuleStorage">

<ellipse fill="none" stroke="black" cx="2626.42" cy="-822.31" rx="70.65" ry="18"/>
<text text-anchor="middle" x="2626.42" y="-818.11" font-family="Times,serif" font-size="14.00">ModuleStorage</text>
</g>
<!-- ModuleRegistry&#45;&gt;ModuleStorage -->
<g id="edge36" class="edge" data-name="ModuleRegistry-&gt;ModuleStorage">

<path fill="none" stroke="black" d="M2358.97,-877.68C2415.42,-865.99 2502.17,-848.03 2561.46,-835.76"/>
<polygon fill="black" stroke="black" points="2562.38,-839.14 2571.46,-833.68 2560.96,-832.28 2562.38,-839.14"/>
</g>
<!-- AKXProxyFactory -->
<g id="node49" class="node" pointer-events="visible" data-name="AKXProxyFactory">

<ellipse fill="none" stroke="black" cx="2163.24" cy="-1340.64" rx="84.56" ry="18"/>
<text text-anchor="middle" x="2163.24" y="-1336.44" font-family="Times,serif" font-size="14.00">AKXProxyFactory</text>
</g>
<!-- ModuleStorage&#45;&gt;IModule -->
<g id="edge38" class="edge" data-name="ModuleStorage-&gt;IModule">

<path fill="none" stroke="black" d="M2667.69,-807.59C2718.34,-789.54 2803.78,-759.09 2855.19,-740.77"/>
<polygon fill="black" stroke="black" points="2856.45,-744.04 2864.69,-737.38 2854.1,-737.44 2856.45,-744.04"/>
</g>
<!-- ModuleStorage&#45;&gt;IModuleRegistry -->
<g id="edge39" class="edge" data-name="ModuleStorage-&gt;IModuleRegistry">

<path fill="none" stroke="black" d="M2676.4,-835.09C2719.21,-846.05 2781.05,-861.87 2826.98,-873.62"/>
<polygon fill="black" stroke="black" points="2826.27,-877.05 2836.82,-876.13 2828,-870.26 2826.27,-877.05"/>
</g>
<!-- IERC2055Storage -->
<g id="node51" class="node" pointer-events="visible" data-name="IERC2055Storage">

<ellipse fill="none" stroke="black" cx="1783.24" cy="-584.64" rx="81.69" ry="18"/>
<text text-anchor="middle" x="1783.24" y="-580.44" font-family="Times,serif" font-size="14.00">IERC2055Storage</text>
</g>
<!-- AkxWallet -->
<g id="node52" class="node" pointer-events="visible" data-name="AkxWallet">

<ellipse fill="none" stroke="black" cx="1382.8" cy="-1551.95" rx="53.31" ry="18"/>
<text text-anchor="middle" x="1382.8" y="-1547.75" font-family="Times,serif" font-size="14.00">AkxWallet</text>
</g>
<!-- AkxWallet&#45;&gt;ERC165 -->
<g id="edge40" class="edge" data-name="AkxWallet-&gt;ERC165">

<path fill="none" stroke="black" d="M1421.97,-1539.55C1475.56,-1522.58 1571.54,-1492.18 1628.08,-1474.28"/>
<polygon fill="black" stroke="black" points="1629.35,-1477.55 1637.82,-1471.2 1627.23,-1470.88 1629.35,-1477.55"/>
</g>
<!-- AkxWallet&#45;&gt;InitModifiers -->
<g id="edge45" class="edge" data-name="AkxWallet-&gt;InitModifiers">

<path fill="none" stroke="black" d="M1383.04,-1533.86C1383.83,-1473.58 1386.36,-1279.25 1387.33,-1205.54"/>
<polygon fill="black" stroke="black" points="1390.83,-1205.22 1387.46,-1195.18 1383.83,-1205.13 1390.83,-1205.22"/>
</g>
<!-- NonCustodialWallet -->
<g id="node53" class="node" pointer-events="visible" data-name="NonCustodialWallet">

<ellipse fill="none" stroke="black" cx="1112.95" cy="-1737.52" rx="90.35" ry="18"/>
<text text-anchor="middle" x="1112.95" y="-1733.32" font-family="Times,serif" font-size="14.00">NonCustodialWallet</text>
</g>
<!-- AkxWallet&#45;&gt;NonCustodialWallet -->
<g id="edge41" class="edge" data-name="AkxWallet-&gt;NonCustodialWallet">

<path fill="none" stroke="black" d="M1358.86,-1568.42C1310.74,-1601.51 1202.19,-1676.15 1146.82,-1714.23"/>
<polygon fill="black" stroke="black" points="1144.67,-1711.46 1138.41,-1720.01 1148.63,-1717.23 1144.67,-1711.46"/>
</g>
<!-- IERC1155Receiver -->
<g id="node54" class="node" pointer-events="visible" data-name="IERC1155Receiver">

<ellipse fill="none" stroke="black" cx="1590.23" cy="-1711.98" rx="86.82" ry="18"/>
<text text-anchor="middle" x="1590.23" y="-1707.78" font-family="Times,serif" font-size="14.00">IERC1155Receiver</text>
</g>
<!-- AkxWallet&#45;&gt;IERC1155Receiver -->
<g id="edge42" class="edge" data-name="AkxWallet-&gt;IERC1155Receiver">

<path fill="none" stroke="black" d="M1404.22,-1568.48C1441.19,-1597 1517.11,-1655.57 1559.64,-1688.38"/>
<polygon fill="black" stroke="black" points="1557.62,-1691.24 1567.67,-1694.58 1561.89,-1685.7 1557.62,-1691.24"/>
</g>
<!-- IERC777Recipient -->
<g id="node55" class="node" pointer-events="visible" data-name="IERC777Recipient">

<ellipse fill="none" stroke="black" cx="1546.74" cy="-1774.74" rx="84.55" ry="18"/>
<text text-anchor="middle" x="1546.74" y="-1770.54" font-family="Times,serif" font-size="14.00">IERC777Recipient</text>
</g>
<!-- AkxWallet&#45;&gt;IERC777Recipient -->
<g id="edge43" class="edge" data-name="AkxWallet-&gt;IERC777Recipient">

<path fill="none" stroke="black" d="M1395.67,-1569.44C1424.32,-1608.37 1493.51,-1702.39 1527.39,-1748.44"/>
<polygon fill="black" stroke="black" points="1524.74,-1750.74 1533.49,-1756.72 1530.38,-1746.59 1524.74,-1750.74"/>
</g>
<!-- IERC721Receiver -->
<g id="node56" class="node" pointer-events="visible" data-name="IERC721Receiver">

<ellipse fill="none" stroke="black" cx="1316.33" cy="-1778.98" rx="81.66" ry="18"/>
<text text-anchor="middle" x="1316.33" y="-1774.78" font-family="Times,serif" font-size="14.00">IERC721Receiver</text>
</g>
<!-- AkxWallet&#45;&gt;IERC721Receiver -->
<g id="edge44" class="edge" data-name="AkxWallet-&gt;IERC721Receiver">

<path fill="none" stroke="black" d="M1377.48,-1570.15C1365.88,-1609.77 1338.27,-1704.05 1324.47,-1751.17"/>
<polygon fill="black" stroke="black" points="1321.04,-1750.43 1321.59,-1761.01 1327.76,-1752.4 1321.04,-1750.43"/>
</g>
<!-- ERC2055Transaction -->
<g id="node57" class="node" pointer-events="visible" data-name="ERC2055Transaction">

<ellipse fill="none" stroke="black" cx="1035.8" cy="-1624.13" rx="94.93" ry="18"/>
<text text-anchor="middle" x="1035.8" y="-1619.93" font-family="Times,serif" font-size="14.00">ERC2055Transaction</text>
</g>
<!-- AkxWallet&#45;&gt;ERC2055Transaction -->
<g id="edge46" class="edge" data-name="AkxWallet-&gt;ERC2055Transaction">

<path fill="none" stroke="black" d="M1337.08,-1561.46C1279.2,-1573.5 1178.73,-1594.4 1109.85,-1608.73"/>
<polygon fill="black" stroke="black" points="1109,-1605.33 1099.92,-1610.79 1110.42,-1612.18 1109,-1605.33"/>
</g>
<!-- FallbackManager -->
<g id="node58" class="node" pointer-events="visible" data-name="FallbackManager">

<ellipse fill="none" stroke="black" cx="1417.9" cy="-1824.68" rx="78.71" ry="18"/>
<text text-anchor="middle" x="1417.9" y="-1820.48" font-family="Times,serif" font-size="14.00">FallbackManager</text>
</g>
<!-- AkxWallet&#45;&gt;FallbackManager -->
<g id="edge47" class="edge" data-name="AkxWallet-&gt;FallbackManager">

<path fill="none" stroke="black" d="M1385.16,-1570.27C1391.17,-1616.95 1407.08,-1740.6 1414.28,-1796.51"/>
<polygon fill="black" stroke="black" points="1410.81,-1796.97 1415.55,-1806.44 1417.75,-1796.08 1410.81,-1796.97"/>
</g>
<!-- ISignatureValidator -->
<g id="node63" class="node" pointer-events="visible" data-name="ISignatureValidator">

<ellipse fill="none" stroke="black" cx="965.75" cy="-1988.98" rx="87.96" ry="18"/>
<text text-anchor="middle" x="965.75" y="-1984.78" font-family="Times,serif" font-size="14.00">ISignatureValidator</text>
</g>
<!-- NonCustodialWallet&#45;&gt;ISignatureValidator -->
<g id="edge50" class="edge" data-name="NonCustodialWallet-&gt;ISignatureValidator">

<path fill="none" stroke="black" d="M1102.36,-1755.61C1076.79,-1799.28 1011.57,-1910.71 981.44,-1962.18"/>
<polygon fill="black" stroke="black" points="978.27,-1960.66 976.24,-1971.06 984.31,-1964.2 978.27,-1960.66"/>
</g>
<!-- ERC2055Transaction&#45;&gt;LibMath -->
<g id="edge55" class="edge" data-name="ERC2055Transaction-&gt;LibMath">

<path fill="none" stroke="black" d="M968.44,-1611.35C911.53,-1600.56 831.26,-1585.34 779.64,-1575.55"/>
<polygon fill="black" stroke="black" points="780.19,-1572.09 769.71,-1573.67 778.88,-1578.97 780.19,-1572.09"/>
</g>
<!-- ISignatureValidatorConstants -->
<g id="node64" class="node" pointer-events="visible" data-name="ISignatureValidatorConstants">

<ellipse fill="none" stroke="black" cx="997.18" cy="-1681.79" rx="125.65" ry="18"/>
<text text-anchor="middle" x="997.18" y="-1677.59" font-family="Times,serif" font-size="14.00">ISignatureValidatorConstants</text>
</g>
<!-- ERC2055Transaction&#45;&gt;ISignatureValidatorConstants -->
<g id="edge54" class="edge" data-name="ERC2055Transaction-&gt;ISignatureValidatorConstants">

<path fill="none" stroke="black" d="M1023.79,-1642.06C1020.99,-1646.25 1017.94,-1650.8 1014.94,-1655.28"/>
<polygon fill="black" stroke="black" points="1011.97,-1653.42 1009.31,-1663.68 1017.79,-1657.32 1011.97,-1653.42"/>
</g>
<!-- AkxWalletManager -->
<g id="node60" class="node" pointer-events="visible" data-name="AkxWalletManager">

<ellipse fill="none" stroke="black" cx="2229.24" cy="-773.64" rx="87.94" ry="18"/>
<text text-anchor="middle" x="2229.24" y="-769.44" font-family="Times,serif" font-size="14.00">AkxWalletManager</text>
</g>
<!-- IERC2055Decentralized -->
<g id="node62" class="node" pointer-events="visible" data-name="IERC2055Decentralized">

<ellipse fill="none" stroke="black" cx="1870.24" cy="-710.64" rx="105.92" ry="18"/>
<text text-anchor="middle" x="1870.24" y="-706.44" font-family="Times,serif" font-size="14.00">IERC2055Decentralized</text>
</g>
<!-- ISignatureValidator&#45;&gt;ISignatureValidatorConstants -->
<g id="edge51" class="edge" data-name="ISignatureValidator-&gt;ISignatureValidatorConstants">

<path fill="none" stroke="black" d="M967.62,-1970.68C972.9,-1919.14 987.9,-1772.46 994.27,-1710.25"/>
<polygon fill="black" stroke="black" points="997.78,-1710.3 995.32,-1699.99 990.82,-1709.59 997.78,-1710.3"/>
</g>
<!-- OrderLogic -->
<g id="node65" class="node" pointer-events="visible" data-name="OrderLogic">

<ellipse fill="none" stroke="black" cx="1946.24" cy="-458.64" rx="56.16" ry="18"/>
<text text-anchor="middle" x="1946.24" y="-454.44" font-family="Times,serif" font-size="14.00">OrderLogic</text>
</g>
<!-- TransactionArchivesStorage -->
<g id="node66" class="node" pointer-events="visible" data-name="TransactionArchivesStorage">

<ellipse fill="none" stroke="black" cx="702.61" cy="-18.37" rx="120.96" ry="18"/>
<text text-anchor="middle" x="702.61" y="-14.17" font-family="Times,serif" font-size="14.00">TransactionArchivesStorage</text>
</g>
<!-- TransactionArchivesStorage&#45;&gt;Ownable -->
<g id="edge56" class="edge" data-name="TransactionArchivesStorage-&gt;Ownable">

<path fill="none" stroke="black" d="M714.26,-36.65C741.5,-79.39 809.45,-185.98 841.02,-235.51"/>
<polygon fill="black" stroke="black" points="838.15,-237.52 846.47,-244.07 844.05,-233.75 838.15,-237.52"/>
</g>
</g>
</svg>